<svg id="Layer_1" enable-background="new 0 0 512 512" height="512" viewBox="0 0 512 512" width="512" xmlns="http://www.w3.org/2000/svg"><g><g><path d="m476.599 90.801-15.22 44.19-39.96 115.979-139.859-88.119c-17.12-48.5-20.13-98.099-20.31-101.479-.17-3.08 1.57-5.96 4.38-7.24.37-.17 37.82-17.14 78.14-30.83 22.27-7.56 44.47-13.79 59.94-17.87 12.54-3.3 20.66-5.2 20.84-5.24 3-.69 6.12.52 7.87 3.06 1.849 2.689 27.889 41.019 44.179 87.549z" fill="#dcf8ff"/><path d="m511.346 311.226c-1.688-3.783-6.126-5.478-9.905-3.79-.262.117-23.984 10.684-46.414 18.78l-28.922-84.774-14.197 4.844 28.914 84.752c-22.719 7.227-47.962 13.28-48.241 13.346-4.029.962-6.515 5.008-5.553 9.037.822 3.443 3.897 5.759 7.289 5.759.576 0 1.162-.067 1.748-.207 1.288-.308 31.846-7.634 56.715-16.075 24.87-8.441 53.566-21.225 54.776-21.765 3.782-1.689 5.48-6.125 3.79-9.907z" fill="#d2e1f9"/></g><path d="m476.599 90.801-15.22 44.19c-7.99-59.89-45-112.889-57.67-129.559 12.54-3.3 20.66-5.2 20.84-5.24 3-.69 6.12.52 7.87 3.06 1.85 2.689 27.89 41.019 44.18 87.549z" fill="#d2e1f9"/><g fill="#d2e1f9"><path d="m199.761 27.048c.193-4.136-3.001-7.646-7.137-7.843-4.133-.204-7.651 2.999-7.847 7.137-.067 1.408-1.517 34.84 8.744 65.139 1.059 3.126 3.976 5.096 7.102 5.096.798 0 1.609-.128 2.406-.398 3.924-1.329 6.027-5.586 4.698-9.509-9.327-27.55-7.98-59.305-7.966-59.622z"/><path d="m77.63 64.782c-3.992-1.081-8.11 1.28-9.193 5.277-1.084 3.996 1.277 8.115 5.271 9.201.587.16 59.093 16.453 93.528 58.464 1.483 1.809 3.636 2.746 5.805 2.746 1.673 0 3.356-.557 4.751-1.7 3.203-2.625 3.671-7.351 1.046-10.555-37.541-45.8-98.626-62.734-101.208-63.433z"/><path d="m342.75 311.823c-.141-.102-14.214-10.37-23.195-28.294-1.854-3.702-6.359-5.201-10.064-3.346-3.704 1.856-5.201 6.362-3.346 10.065 10.615 21.185 27.141 33.243 27.84 33.746 1.326.955 2.858 1.415 4.377 1.415 2.329 0 4.626-1.083 6.092-3.117 2.42-3.361 1.657-8.048-1.704-10.469z"/><path d="m276.315 295.355c-3.891 1.421-5.892 5.728-4.471 9.619 10.102 27.644 7.88 55.83 7.856 56.111-.351 4.124 2.705 7.752 6.829 8.107.219.019.437.028.652.028 3.851 0 7.127-2.949 7.464-6.857.109-1.279 2.566-31.672-8.712-62.539-1.42-3.889-5.725-5.892-9.618-4.469z"/></g><path d="m484.389 192.52c-8.42 25.34-26.85 43.96-54.85 55.41-2.62 1.08-5.33 2.09-8.12 3.04-13.11 4.44-25.61 6.67-37.45 6.67-17.59 0-33.72-4.91-48.22-14.7-26.06-17.61-43.09-48.62-54.19-80.09 11.24 5.41 37.39 14.88 65.359 3.27 30.61-12.7 36.72-35.02 68.42-61.71 10.66-8.97 23.36-12.82 34.87-14.17 10.67-1.26 20.32-.37 26.39.56 11.591 33.051 18.241 70.251 7.791 101.72z" fill="#ff5f85"/><g><path d="m250.75 214.19c-.15 2.78-2.21 36.75-12.42 75.67l-37.5 28.92-110.249 85.009-44.9-185.999c15.16-34.17 32.41-59.55 33.9-61.72 1.75-2.54 4.87-3.75 7.87-3.06.4.1 40.46 9.43 80.78 23.11 22.76 7.73 44.61 16.5 59.39 22.71 11.4 4.79 18.58 8.04 18.75 8.12 2.809 1.28 4.549 4.16 4.379 7.24z" fill="#dcf8ff"/><path d="m250.75 214.19c-.15 2.78-2.21 36.75-12.42 75.67l-37.5 28.92c21.84-49.77 26.04-105.229 26.79-119.949 11.4 4.79 18.58 8.04 18.75 8.12 2.81 1.279 4.55 4.159 4.38 7.239z" fill="#d2e1f9"/><path d="m119.419 497.204c-.279-.067-25.511-6.116-48.241-13.347l28.914-84.752-14.197-4.844-28.922 84.775c-22.43-8.095-46.15-18.663-46.413-18.78-3.784-1.689-8.218.007-9.906 3.79-1.689 3.782.007 8.217 3.789 9.906 1.21.54 29.906 13.325 54.776 21.766 24.869 8.441 55.426 15.767 56.715 16.075.586.14 1.172.207 1.748.207 3.392 0 6.467-2.316 7.289-5.759.963-4.029-1.523-8.075-5.552-9.037z" fill="#d2e1f9"/><path d="m238.33 289.86c-10.29 39.21-28.86 83.44-62.08 105.899-14.5 9.79-30.63 14.7-48.22 14.7-10.56 0-21.65-1.77-33.22-5.31-1.4-.42-2.81-.88-4.23-1.36-32.57-11.06-53.76-30.72-62.97-58.45-13.29-40.02 1.08-89.29 18.07-127.549 11.58-1.96 40.97-4.66 62.22 13.23 31.39 26.43 37.45 48.54 67.759 61.12 11.81 4.9 23.29 6.01 33.43 5.25 12.301-.91 22.641-4.56 29.241-7.53z" fill="#ff5f85"/><g fill="#ffa1a8"><circle cx="106.805" cy="345.964" r="7.5"/><circle cx="75.865" cy="289.854" r="7.5"/></g><path d="m238.33 289.86c-10.29 39.21-28.86 83.44-62.08 105.899-14.5 9.79-30.63 14.7-48.22 14.7-10.56 0-21.65-1.77-33.22-5.31 63.77-4.92 96.999-56.8 114.279-107.759 12.301-.91 22.641-4.56 29.241-7.53z" fill="#b2527e"/></g><circle cx="441.391" cy="146.815" fill="#ffa1a8" r="7.5"/><path d="m484.389 192.52c-8.42 25.34-26.85 43.96-54.85 55.41 43.23-50.39 37.87-109.709 20.67-157.689 10.67-1.26 20.32-.37 26.39.56 11.59 33.05 18.24 70.25 7.79 101.719z" fill="#b2527e"/></g></svg>